<svg width="24" height="24" viewBox="0 0 24 24" fill="none" xmlns="http://www.w3.org/2000/svg">
<g id="ic_Telegram_24px">
<path id="telegram-1" fill-rule="evenodd" clip-rule="evenodd" d="M16.32 20.8123C16.5883 21.0061 16.9341 21.0545 17.2425 20.9355C17.5508 20.8157 17.7775 20.5471 17.8458 20.2215C18.5699 16.7501 20.3266 7.96368 20.9857 4.80593C21.0357 4.56793 20.9524 4.32058 20.7691 4.16163C20.5857 4.00268 20.3316 3.95678 20.1049 4.04263C16.6108 5.36183 5.85022 9.48008 1.45199 11.1401C1.17283 11.2455 0.991165 11.5192 1.00033 11.8193C1.01033 12.1202 1.20866 12.3811 1.49449 12.4687C3.46694 13.0705 6.05605 13.9077 6.05605 13.9077C6.05605 13.9077 7.26602 17.635 7.89684 19.5305C7.97601 19.7685 8.1585 19.9555 8.39933 20.0201C8.63932 20.0838 8.89599 20.0167 9.07515 19.8441C10.0885 18.8683 11.6551 17.3596 11.6551 17.3596C11.6551 17.3596 14.6317 19.5857 16.32 20.8123ZM7.14519 13.4368L8.54433 18.1441L8.85515 15.1632C8.85515 15.1632 14.2609 10.1898 17.3425 7.35508C17.4325 7.27178 17.445 7.13238 17.37 7.03463C17.2958 6.93688 17.1591 6.91393 17.0566 6.98023C13.485 9.30668 7.14519 13.4368 7.14519 13.4368Z" fill="#797981"/>
</g>
</svg>
