<svg width="80" height="80" viewBox="0 0 80 80" fill="none" xmlns="http://www.w3.org/2000/svg">
<g id="&#208;&#152;&#208;&#186;&#208;&#190;&#208;&#189;&#208;&#186;&#208;&#176;">
<path id="Vector (Stroke)" fill-rule="evenodd" clip-rule="evenodd" d="M25.7778 15C20.9795 15 17.1111 18.8622 17.1111 23.6C17.1111 26.1423 18.2205 28.4275 19.9958 30.0065C20.8212 30.7406 20.8952 32.0047 20.1611 32.8301C19.427 33.6554 18.1628 33.7294 17.3375 32.9953C14.7484 30.6925 13.1111 27.3364 13.1111 23.6C13.1111 16.6294 18.794 11 25.7778 11C29.0169 11 31.9778 12.2121 34.2181 14.2047C35.0434 14.9388 35.1174 16.2029 34.3833 17.0283C33.6492 17.8536 32.3851 17.9276 31.5597 17.1935C30.0257 15.8291 28.0025 15 25.7778 15ZM45.7819 14.2047C48.0222 12.2121 50.9831 11 54.2222 11C61.206 11 66.8889 16.6294 66.8889 23.6C66.8889 27.3364 65.2516 30.6925 62.6625 32.9953C61.8372 33.7294 60.573 33.6554 59.8389 32.8301C59.1048 32.0047 59.1788 30.7406 60.0042 30.0065C61.7795 28.4275 62.8889 26.1423 62.8889 23.6C62.8889 18.8622 59.0205 15 54.2222 15C51.9975 15 49.9743 15.8291 48.4403 17.1935C47.6149 17.9276 46.3508 17.8536 45.6167 17.0283C44.8826 16.2029 44.9566 14.9388 45.7819 14.2047ZM40 25.6C35.2017 25.6 31.3333 29.4622 31.3333 34.2C31.3333 38.9378 35.2017 42.8 40 42.8C44.7983 42.8 48.6667 38.9378 48.6667 34.2C48.6667 29.4622 44.7983 25.6 40 25.6ZM27.3333 34.2C27.3333 27.2294 33.0162 21.6 40 21.6C46.9838 21.6 52.6667 27.2294 52.6667 34.2C52.6667 41.1706 46.9838 46.8 40 46.8C33.0162 46.8 27.3333 41.1706 27.3333 34.2ZM20.6021 45.1791C20.8805 46.248 20.2398 47.3403 19.1709 47.6187C16.2609 48.3768 13.9027 49.595 12.3115 51.017C10.7253 52.4345 10 53.9501 10 55.4013C10 56.5059 9.10457 57.4013 8 57.4013C6.89543 57.4013 6 56.5059 6 55.4013C6 52.5059 7.46864 49.9803 9.6461 48.0344C11.8185 46.0931 14.7936 44.6256 18.1625 43.7479C19.2314 43.4695 20.3236 44.1102 20.6021 45.1791ZM59.3979 45.1791C59.6764 44.1102 60.7686 43.4695 61.8375 43.7479C65.2064 44.6256 68.1815 46.0931 70.3539 48.0344C72.5314 49.9803 74 52.5059 74 55.4013C74 56.5059 73.1046 57.4013 72 57.4013C70.8954 57.4013 70 56.5059 70 55.4013C70 53.9501 69.2747 52.4345 67.6885 51.017C66.0973 49.595 63.7391 48.3768 60.8291 47.6187C59.7602 47.3403 59.1195 46.248 59.3979 45.1791ZM26.405 56.7868C29.9816 54.6543 34.7928 53.4 40 53.4C45.2072 53.4 50.0184 54.6543 53.595 56.7868C57.1298 58.8945 59.7778 62.0881 59.7778 66C59.7778 67.1046 58.8823 68 57.7778 68C56.6732 68 55.7778 67.1046 55.7778 66C55.7778 64.0576 54.446 61.9513 51.5465 60.2225C48.6888 58.5186 44.6112 57.4 40 57.4C35.3888 57.4 31.3112 58.5186 28.4535 60.2225C25.554 61.9513 24.2222 64.0576 24.2222 66C24.2222 67.1046 23.3268 68 22.2222 68C21.1177 68 20.2222 67.1046 20.2222 66C20.2222 62.0881 22.8702 58.8945 26.405 56.7868Z" fill="white"/>
</g>
</svg>
