<svg width="80" height="80" viewBox="0 0 80 80" fill="none" xmlns="http://www.w3.org/2000/svg">
<g id="&#208;&#152;&#208;&#186;&#208;&#190;&#208;&#189;&#208;&#186;&#208;&#176;">
<path id="Vector (Stroke)" fill-rule="evenodd" clip-rule="evenodd" d="M64.1271 9.59257C64.9044 8.80779 66.1707 8.80173 66.9555 9.57903C69.5038 12.103 71.5262 15.1005 72.9064 18.4008C74.2861 21.7001 75 25.2374 75 28.812C75 32.3859 74.2878 35.9246 72.9078 39.2245C71.5275 42.5251 69.5035 45.5228 66.9555 48.0465C66.1707 48.8238 64.9044 48.8177 64.1271 48.033C63.3498 47.2482 63.3559 45.9819 64.1406 45.2046C66.316 43.0499 68.0416 40.4931 69.2175 37.6812C70.3937 34.8685 71 31.8542 71 28.812C71 25.7704 70.3926 22.7574 69.2161 19.9441C68.04 17.1318 66.3157 14.5753 64.1406 12.421C63.3559 11.6437 63.3498 10.3773 64.1271 9.59257ZM29.5805 16.5625C22.7213 16.5625 17.1935 22.065 17.1935 28.8125C17.1935 35.56 22.7213 41.0625 29.5805 41.0625C36.4398 41.0625 41.9675 35.56 41.9675 28.8125C41.9675 22.065 36.4398 16.5625 29.5805 16.5625ZM13.1935 28.8125C13.1935 19.8199 20.5483 12.5625 29.5805 12.5625C38.6127 12.5625 45.9675 19.8199 45.9675 28.8125C45.9675 37.8051 38.6127 45.0625 29.5805 45.0625C20.5483 45.0625 13.1935 37.8051 13.1935 28.8125ZM56.3154 17.3299C57.0927 16.5451 58.359 16.539 59.1438 17.3163C60.6664 18.8244 61.8752 20.6158 62.7002 22.5887C63.5252 24.5613 63.9509 26.6777 63.9509 28.8147C63.9509 30.9522 63.5254 33.0635 62.7006 35.0357C61.8757 37.0081 60.6668 38.8015 59.1438 40.3099C58.359 41.0872 57.0927 41.0812 56.3154 40.2964C55.5381 39.5116 55.5442 38.2453 56.3289 37.468C57.4779 36.33 58.3891 34.9778 59.0103 33.4925C59.6315 32.0069 59.9509 30.4199 59.9509 28.8147C59.9509 27.209 59.631 25.6171 59.0099 24.132C58.389 22.6471 57.4783 21.2967 56.3289 20.1583C55.5442 19.381 55.5381 18.1147 56.3154 17.3299ZM13.2187 56.2548C17.4948 53.4312 23.2853 51.75 29.5805 51.75C35.8758 51.75 41.6663 53.4312 45.9423 56.2548C50.2026 59.0679 53.1611 63.1792 53.1611 68C53.1611 69.1046 52.2656 70 51.1611 70C50.0565 70 49.1611 69.1046 49.1611 68C49.1611 64.9507 47.2886 61.9371 43.7382 59.5927C40.2036 57.2587 35.2039 55.75 29.5805 55.75C23.9572 55.75 18.9574 57.2587 15.4228 59.5927C11.8725 61.9371 10 64.9507 10 68C10 69.1046 9.10457 70 8 70C6.89543 70 6 69.1046 6 68C6 63.1792 8.9585 59.0679 13.2187 56.2548Z" fill="white"/>
</g>
</svg>
