<svg width="24" height="24" viewBox="0 0 24 24" fill="none" xmlns="http://www.w3.org/2000/svg">
<g id="ic_notification_badge_24px">
<path id="Vector (Stroke)" fill-rule="evenodd" clip-rule="evenodd" d="M12.0001 3.90476C8.73674 3.90477 6.00027 6.57981 6.00027 9.98942V13.7315C6.00027 14.1472 5.83619 14.5549 5.5298 14.8629L5.1403 15.2545C5.07691 15.3182 5.04464 15.3509 5.02188 15.3753C5.01729 15.3802 5.01401 15.3838 5.01179 15.3863C5.0083 15.3923 5.00469 15.4007 5.00243 15.4116C5.00219 15.4152 5.00183 15.4219 5.00149 15.4325C5.00039 15.4675 5.00029 15.5147 5.00029 15.6049C5.00029 15.8089 5.00062 15.9245 5.00541 16.0095C5.00693 16.0364 5.00865 16.0538 5.00983 16.0636C5.01081 16.0655 5.01275 16.0688 5.01275 16.0688C5.01501 16.0689 5.01738 16.0691 5.01986 16.0692C5.09807 16.0737 5.20665 16.0741 5.40985 16.0741H18.5905C18.7936 16.0741 18.9025 16.0737 18.9809 16.0692C18.9832 16.0691 18.9853 16.069 18.9874 16.0688C18.9874 16.0688 18.9892 16.0657 18.9901 16.0638C18.9913 16.054 18.9931 16.0366 18.9946 16.0095C18.9994 15.9245 18.9997 15.8089 18.9997 15.6049C18.9997 15.5152 18.9996 15.468 18.9984 15.4333C18.9981 15.4222 18.9977 15.4154 18.9974 15.4119C18.9951 15.4001 18.9915 15.3917 18.9885 15.3863C18.9863 15.3839 18.9831 15.3804 18.9788 15.3758C18.9557 15.351 18.9234 15.3184 18.8598 15.2545L18.4703 14.8629C18.1636 14.5545 18 14.1467 18 13.7315V9.98942C18 6.57979 15.2635 3.90475 12.0001 3.90476ZM4.00035 9.98942C4.00035 5.62615 7.53175 2.00001 12.0001 2C16.4685 1.99999 19.9999 5.62614 19.9999 9.98942V13.6311L20.3117 13.9445C20.3197 13.9526 20.328 13.9608 20.3364 13.9693C20.4295 14.0626 20.5445 14.1778 20.6393 14.3105C20.8155 14.5572 20.9275 14.836 20.9744 15.1233C21 15.2806 20.9998 15.4374 20.9997 15.5724C20.9996 15.5834 20.9996 15.5942 20.9996 15.6049C20.9996 15.6322 20.9997 15.66 20.9998 15.6883C21.0008 15.9848 21.0019 16.328 20.8997 16.6325C20.7103 17.1972 20.2612 17.6657 19.6555 17.8711C19.3294 17.9817 18.9619 17.9802 18.6738 17.9791C18.6452 17.9789 18.6174 17.9788 18.5905 17.9788H16V18.0317C16 20.1742 14.2595 22 12.0001 22C9.74083 22 8.00025 20.1742 8.00025 18.0317V17.9788H5.40986C5.38295 17.9788 5.35515 17.9789 5.32659 17.9791C5.0384 17.9802 4.67167 17.9817 4.34558 17.8711C3.74138 17.6663 3.29028 17.1988 3.10028 16.6325C2.99811 16.328 2.99923 15.9848 3.00019 15.6883C3.00028 15.66 3.00037 15.6322 3.00037 15.6049C3.00037 15.5935 3.00036 15.5819 3.00034 15.5701C3.00013 15.4369 2.99988 15.2799 3.02544 15.1233C3.07268 14.834 3.186 14.5556 3.36104 14.3106C3.45622 14.1773 3.57056 14.0627 3.66503 13.968C3.67299 13.96 3.68081 13.9522 3.68847 13.9445L4.00035 13.6309V9.98942ZM10.0002 17.9788V18.0317C10.0002 19.2205 10.9458 20.0952 12.0001 20.0952C13.0545 20.0952 14.0001 19.2205 14.0001 18.0317V17.9788H10.0002Z" fill="#1A1B22"/>
<circle id="Ellipse 6" cx="18" cy="6" r="4" fill="#5A9BFF"/>
</g>
</svg>
