<svg width="125" height="20" viewBox="0 0 125 20" fill="none" xmlns="http://www.w3.org/2000/svg">
<path d="M8.73278 17V2.576H7.43678C5.06078 2.576 3.81278 3.776 3.81278 5.552C3.81278 7.568 4.67678 8.504 6.45278 9.704L7.91678 10.688L3.69278 17H0.548781L4.34078 11.36C2.15678 9.8 0.932781 8.288 0.932781 5.72C0.932781 2.504 3.16478 0.319999 7.41278 0.319999H11.6368V17H8.73278ZM46.8688 16.184C46.0288 16.76 44.6848 17.24 42.8608 17.24C39.2128 17.24 37.1488 15.2 37.1488 11C37.1488 7.352 38.8048 4.688 42.2848 4.688C45.1408 4.688 46.9888 6.272 46.9888 10.472V11.984H40.1008C40.2208 14 41.0128 14.984 43.1008 14.984C44.4928 14.984 45.9808 14.456 46.8688 13.856V16.184ZM64.7248 17.24C60.9088 17.24 59.0608 15.008 59.0608 10.976C59.0608 7.304 60.9568 4.688 64.6048 4.688C66.0208 4.688 67.0768 4.928 67.6768 5.264V7.688C67.1008 7.328 66.0208 6.944 64.9168 6.944C63.0448 6.944 62.0128 8.288 62.0128 10.904C62.0128 13.4 62.8528 14.984 64.8928 14.984C66.0928 14.984 66.9568 14.672 67.6768 14.168V16.496C66.9808 17 66.0448 17.24 64.7248 17.24ZM20.7088 4.928H23.5648V17H20.7088V11.96H16.8928V17H14.0368V4.928H16.8928V9.704H20.7088V4.928ZM36.4528 14.744V19.76H33.8128V17H27.4048V19.76H24.7648V14.744H25.6528C26.6608 12.728 26.8528 8.912 26.8528 5.96V4.928H35.1808V14.744H36.4528ZM55.9888 17L51.7648 11.072V17H48.9088V4.928H51.7648V10.496L55.7968 4.928H58.6768L54.6448 10.496L59.2288 17H55.9888ZM42.2368 6.944C40.8688 6.944 40.1728 7.952 40.1008 9.872H44.0848V9.632C44.0848 8.12 43.6528 6.944 42.2368 6.944ZM32.3248 14.744V7.184H29.3008V7.544C29.3008 9.632 29.0848 12.92 28.2928 14.744H32.3248ZM74.3992 0.319999H77.3032V7.496H82.7272V0.319999H85.6312V17H82.7272V9.752H77.3032V17H74.3992V0.319999ZM97.0638 8.768V14.048C97.0638 15.032 97.1118 16.016 97.2078 17H94.4238C94.3278 16.76 94.2318 16.352 94.2078 16.04H94.0878C93.5358 16.616 92.8158 17.168 91.1358 17.168C88.9278 17.168 87.4398 15.8 87.4398 13.352C87.4398 10.904 89.3838 9.464 93.7518 9.464H94.2078V8.792C94.2078 7.496 93.5838 7.016 92.2158 7.016C90.7518 7.016 89.0718 7.64 88.3038 8.216V5.84C89.1678 5.336 90.6558 4.736 92.5518 4.736C95.5758 4.736 97.0638 5.84 97.0638 8.768ZM94.2078 14.12V11.36H93.7998C91.3518 11.36 90.3678 11.864 90.3678 13.28C90.3678 14.36 90.9678 15.08 92.1678 15.08C93.1758 15.08 93.8478 14.648 94.2078 14.12ZM104.232 3.344C101.928 3.344 100.752 2.024 100.752 0.319999H103.152C103.152 1.136 103.584 1.52 104.232 1.52C104.832 1.52 105.216 1.112 105.216 0.319999H107.616C107.616 2 106.488 3.344 104.232 3.344ZM99.3602 4.928H102.144V12.392L106.56 4.928H109.032V17H106.248V9.536L101.832 17H99.3602V4.928ZM121.726 17V7.976L118.798 17H116.47L113.854 7.976V17H111.43V4.928H115.582L117.934 12.968L120.55 4.928H124.462L124.51 17H121.726Z" fill="#1A1B22"/>
</svg>
