<svg width="1440" height="629" viewBox="0 0 1440 629" fill="none" xmlns="http://www.w3.org/2000/svg">
<path fill-rule="evenodd" clip-rule="evenodd" d="M1157.73 473.049C1187.25 453.444 1206.02 429.318 1211.42 401.289C1216.82 373.259 1208.37 343.797 1188.28 314.469C1168.18 285.137 1136.49 256.01 1095.57 228.723C1013.73 174.153 895.158 127.056 759.24 100.416C623.323 73.7753 495.89 72.6535 399.748 92.3401C351.675 102.184 311.476 117.22 281.956 136.828C252.44 156.433 233.668 180.559 228.268 208.589C222.869 236.618 231.319 266.08 251.409 295.408C271.501 324.74 303.193 353.867 344.114 381.154C425.951 435.725 544.528 482.822 680.445 509.462C816.363 536.102 943.796 537.224 1039.94 517.537C1088.01 507.693 1128.21 492.657 1157.73 473.049ZM680.256 510.443C952.283 563.761 1190.53 514.976 1212.39 401.479C1234.25 287.982 1031.46 152.752 759.429 99.4346C487.403 46.1167 249.159 94.9013 227.296 208.398C205.433 321.895 408.23 457.125 680.256 510.443Z" fill="#797981"/>
<path fill-rule="evenodd" clip-rule="evenodd" d="M1390.43 374.378C1424.27 336.038 1441.53 295.386 1438.71 254.276C1435.89 213.167 1413.23 175.306 1374.47 142.04C1335.71 108.77 1280.92 80.1534 1214 57.5597C1080.18 12.374 898.084 -8.65498 699.442 5.22886C500.8 19.1127 323.317 65.2741 196.952 128.645C133.767 160.332 83.4093 196.298 49.57 234.642C15.7338 272.982 -1.53426 313.633 1.28963 354.743C4.11351 395.853 26.7746 433.713 65.5296 466.98C104.288 500.249 159.083 528.866 225.996 551.46C359.818 596.646 541.916 617.675 740.558 603.791C939.2 589.907 1116.68 543.745 1243.05 480.374C1306.23 448.688 1356.59 412.721 1390.43 374.378ZM740.626 604.788C1138.1 577.006 1451.09 420.046 1439.7 254.207C1428.31 88.3685 1096.85 -23.5493 699.373 4.23198C301.895 32.0132 -11.0903 188.973 0.301358 354.812C11.6931 520.651 343.148 632.569 740.626 604.788Z" fill="#797981"/>
<path d="M280.259 316.144C282.739 313.188 287.52 315.159 287.236 319.021L287.074 321.233C286.948 322.96 287.938 324.573 289.527 325.228L291.563 326.067C295.116 327.532 294.735 332.728 291.007 333.649L288.871 334.178C287.203 334.59 285.989 336.038 285.862 337.765L285.7 339.977C285.417 343.839 280.401 345.079 278.379 341.787L277.221 339.901C276.318 338.429 274.577 337.711 272.909 338.123L270.773 338.652C267.045 339.573 264.326 335.144 266.805 332.188L268.225 330.494C269.334 329.172 269.473 327.28 268.569 325.808L267.411 323.922C265.39 320.63 268.725 316.652 272.279 318.117L274.315 318.957C275.904 319.612 277.73 319.16 278.839 317.838L280.259 316.144Z" fill="#FFCE92"/>
<path d="M566.525 602.43C567.378 598.957 571.979 598.277 573.784 601.359L579.149 610.521C579.331 610.832 579.554 611.117 579.812 611.368L587.412 618.747C589.968 621.229 588.251 625.588 584.704 625.624L574.155 625.729C573.797 625.733 573.44 625.786 573.096 625.886L562.96 628.835C559.552 629.827 556.668 626.147 558.411 623.031L563.594 613.763C563.771 613.448 563.904 613.11 563.99 612.76L566.525 602.43Z" fill="#7F67D2"/>
<path d="M1280.53 57.4538C1281.23 56.7332 1282.43 57.3822 1282.21 58.3643L1279.62 70.3027C1279.51 70.8295 1279.83 71.3528 1280.35 71.4851L1292.09 74.4841C1293.06 74.7308 1293.1 76.1003 1292.15 76.4051L1280.6 80.1108C1280.09 80.2743 1279.8 80.8161 1279.95 81.335L1283.25 93.0948C1283.52 94.0621 1282.36 94.7825 1281.63 94.1053L1272.67 85.8725C1272.28 85.5092 1271.67 85.5277 1271.3 85.9143L1262.85 94.675C1262.15 95.3957 1260.96 94.7467 1261.17 93.7646L1263.76 81.8262C1263.88 81.2994 1263.56 80.7761 1263.04 80.6437L1251.29 77.6447C1250.33 77.398 1250.29 76.0286 1251.23 75.7238L1262.78 72.0181C1263.29 71.8546 1263.58 71.3128 1263.43 70.7939L1260.14 59.0341C1259.86 58.0668 1261.02 57.3464 1261.76 58.0236L1270.71 66.2564C1271.1 66.6197 1271.71 66.6012 1272.09 66.2146L1280.53 57.4538Z" fill="#ACCCFF"/>
<path d="M54.4123 198.558C54.5704 197.603 55.8474 197.41 56.2758 198.276L62.3057 210.466C62.4973 210.853 62.9144 211.072 63.3389 211.008L76.6951 208.99C77.6441 208.846 78.2207 210.012 77.5364 210.691L67.9069 220.242C67.6009 220.546 67.5234 221.013 67.715 221.401L73.7449 233.59C74.1734 234.457 73.2527 235.37 72.4013 234.923L60.4201 228.637C60.0393 228.437 59.5744 228.507 59.2684 228.811L49.6388 238.362C48.9546 239.041 47.8091 238.44 47.9671 237.485L50.1919 224.048C50.2625 223.621 50.0526 223.197 49.6719 222.997L37.6906 216.711C36.8393 216.264 37.052 214.979 38.001 214.836L51.3572 212.818C51.7817 212.754 52.1169 212.421 52.1876 211.994L54.4123 198.558Z" fill="#87CC9E"/>
<path d="M1205.6 335.703C1206.36 332.073 1211.19 331.36 1212.95 334.617L1215.81 339.905C1216.37 340.929 1217.34 341.658 1218.47 341.9L1224.31 343.15C1227.91 343.92 1228.62 348.79 1225.39 350.568L1220.15 353.456C1219.13 354.015 1218.41 354.993 1218.17 356.135L1216.93 362.029C1216.17 365.658 1211.34 366.371 1209.57 363.115L1206.71 357.827C1206.16 356.803 1205.19 356.074 1204.06 355.832L1198.21 354.582C1194.62 353.812 1193.91 348.942 1197.14 347.164L1202.38 344.276C1203.39 343.717 1204.12 342.738 1204.36 341.597L1205.6 335.703Z" fill="#CCC2ED"/>
</svg>
