<svg width="1429" height="630" viewBox="0 0 1429 630" fill="none" xmlns="http://www.w3.org/2000/svg">
<path fill-rule="evenodd" clip-rule="evenodd" d="M1169.19 473.394C1198.98 453.774 1217.93 429.631 1223.38 401.581C1228.83 373.53 1220.3 344.048 1200.02 314.698C1179.74 285.345 1147.75 256.197 1106.44 228.89C1023.83 174.279 904.133 127.148 766.931 100.489C629.729 73.829 501.092 72.7064 404.042 92.4073C355.515 102.258 314.936 117.305 285.137 136.927C255.342 156.547 236.392 180.69 230.942 208.74C225.492 236.791 234.021 266.274 254.301 295.623C274.584 324.976 306.575 354.125 347.882 381.431C430.493 436.042 550.19 483.173 687.391 509.833C824.593 536.492 953.23 537.615 1050.28 517.914C1098.81 508.063 1139.39 493.016 1169.19 473.394ZM687.201 510.814C961.797 564.171 1202.29 515.351 1224.36 401.771C1246.43 288.192 1041.72 152.864 767.122 99.507C492.525 46.1503 252.03 94.9704 229.96 208.55C207.891 322.129 412.604 457.458 687.201 510.814Z" fill="#797981"/>
<path fill-rule="evenodd" clip-rule="evenodd" d="M1404.08 374.65C1438.24 336.282 1455.67 295.601 1452.82 254.462C1449.97 213.322 1427.09 175.434 1387.97 142.143C1348.85 108.85 1293.54 80.2117 1225.99 57.6016C1090.91 12.383 907.086 -8.66128 706.567 5.23267C506.048 19.1266 326.889 65.3217 199.33 128.739C135.548 160.449 84.7144 196.441 50.5554 234.813C16.3995 273.181 -1.03166 313.862 1.8189 355.001C4.66947 396.141 27.5447 434.029 66.6658 467.32C105.79 500.613 161.103 529.251 228.648 551.861C363.734 597.08 547.553 618.124 748.072 604.23C948.591 590.336 1127.75 544.141 1255.31 480.724C1319.09 449.014 1369.92 413.022 1404.08 374.65ZM748.141 605.228C1149.38 577.426 1465.32 420.352 1453.82 254.392C1442.32 88.4328 1107.73 -23.5664 706.498 4.23506C305.264 32.0365 -10.678 189.111 0.821295 355.07C12.3206 521.03 346.907 633.029 748.141 605.228Z" fill="#797981"/>
<path d="M283.424 316.375C285.927 313.416 290.753 315.389 290.467 319.253L290.304 321.467C290.176 323.195 291.175 324.809 292.779 325.465L294.835 326.305C298.421 327.771 298.037 332.97 294.273 333.892L292.117 334.421C290.434 334.833 289.208 336.283 289.08 338.011L288.916 340.225C288.631 344.089 283.567 345.33 281.527 342.036L280.358 340.149C279.445 338.675 277.688 337.957 276.005 338.37L273.849 338.898C270.085 339.82 267.34 335.388 269.843 332.43L271.277 330.735C272.396 329.412 272.536 327.518 271.623 326.045L270.454 324.158C268.414 320.863 271.781 316.883 275.368 318.349L277.423 319.189C279.028 319.844 280.871 319.393 281.991 318.07L283.424 316.375Z" fill="#FFCE92"/>
<path d="M572.395 602.869C573.256 599.393 577.901 598.713 579.722 601.796L585.138 610.965C585.322 611.277 585.547 611.562 585.808 611.813L593.479 619.198C596.06 621.681 594.326 626.044 590.745 626.079L580.097 626.185C579.735 626.189 579.375 626.241 579.028 626.341L568.796 629.293C565.355 630.286 562.444 626.603 564.204 623.484L569.436 614.21C569.614 613.895 569.748 613.557 569.835 613.206L572.395 602.869Z" fill="#7F67D2"/>
<path d="M1293.15 57.4957C1293.85 56.7745 1295.06 57.424 1294.84 58.4068L1292.23 70.3539C1292.11 70.8811 1292.44 71.4047 1292.96 71.5372L1304.82 74.5384C1305.79 74.7852 1305.83 76.1557 1304.87 76.4607L1293.22 80.1691C1292.71 80.3327 1292.41 80.8749 1292.56 81.3942L1295.89 93.1625C1296.16 94.1306 1295 94.8515 1294.25 94.1738L1285.21 85.935C1284.82 85.5715 1284.2 85.59 1283.82 85.9768L1275.3 94.744C1274.6 95.4651 1273.39 94.8156 1273.6 93.8329L1276.22 81.8857C1276.33 81.3586 1276.01 80.8349 1275.49 80.7025L1263.63 77.7013C1262.66 77.4544 1262.61 76.084 1263.57 75.7789L1275.23 72.0705C1275.74 71.9069 1276.03 71.3647 1275.89 70.8454L1272.56 59.0771C1272.28 58.109 1273.45 57.3881 1274.19 58.0659L1283.23 66.3046C1283.63 66.6682 1284.25 66.6496 1284.62 66.2628L1293.15 57.4957Z" fill="#ACCCFF"/>
<path d="M55.4435 198.702C55.6031 197.747 56.8921 197.554 57.3246 198.42L63.4115 210.619C63.6049 211.007 64.0259 211.226 64.4544 211.161L77.9368 209.142C78.8948 208.998 79.4768 210.165 78.7861 210.844L69.0655 220.402C68.7566 220.706 68.6785 221.174 68.8719 221.562L74.9587 233.76C75.3913 234.627 74.4619 235.541 73.6025 235.094L61.508 228.803C61.1237 228.603 60.6543 228.673 60.3454 228.977L50.6249 238.536C49.9342 239.215 48.7779 238.613 48.9374 237.658L51.1832 224.211C51.2545 223.784 51.0426 223.359 50.6583 223.159L38.5638 216.868C37.7044 216.421 37.9191 215.136 38.8772 214.992L52.3596 212.973C52.788 212.909 53.1264 212.576 53.1978 212.149L55.4435 198.702Z" fill="#87CC9E"/>
<path d="M1217.5 335.948C1218.27 332.315 1223.15 331.602 1224.93 334.861L1227.82 340.153C1228.38 341.177 1229.36 341.906 1230.5 342.149L1236.4 343.4C1240.03 344.17 1240.74 349.044 1237.48 350.823L1232.19 353.713C1231.17 354.273 1230.44 355.252 1230.19 356.394L1228.94 362.292C1228.17 365.925 1223.3 366.638 1221.52 363.379L1218.63 358.087C1218.07 357.062 1217.09 356.333 1215.95 356.091L1210.05 354.84C1206.42 354.069 1205.71 349.196 1208.96 347.416L1214.26 344.527C1215.28 343.967 1216.01 342.988 1216.25 341.846L1217.5 335.948Z" fill="#CCC2ED"/>
</svg>
